<svg width="25" height="26" viewBox="0 0 25 26" fill="none" xmlns="http://www.w3.org/2000/svg">
<path id="Vector" d="M9.89014 2.97426L10.7825 4.71866C11.5878 6.29288 11.2646 8.358 9.99615 9.74172C9.99615 9.74172 8.45777 11.4202 11.2471 14.4633C14.0356 17.5053 15.5752 15.828 15.5752 15.828C16.8436 14.4442 18.7366 14.0916 20.1797 14.9701L21.7787 15.9436C23.9578 17.2702 24.215 20.6038 22.2998 22.6934C21.1489 23.9489 19.739 24.9258 18.1804 24.9902C15.5568 25.0988 11.1011 24.3744 6.63153 19.4985C2.162 14.6226 1.49798 9.76185 1.59745 6.89965C1.65653 5.19941 2.55204 3.66135 3.70293 2.40585C5.61824 0.316419 8.67405 0.597159 9.89014 2.97426Z" stroke="white" stroke-width="2" stroke-linecap="round"/>
</svg>
