<?xml version="1.0" standalone="yes"?>
<svg xmlns="http://www.w3.org/2000/svg" width="373" height="135">
<path style="fill:#000000; stroke:none;" d="M43 29L42 29C30.7765 23.951 15.3216 20.0082 3 20C13.4713 35.8197 28.7952 36 46 36C68.3824 36 90.6633 35 113 35L113 34C105.485 31.8251 97.8231 29.4918 93 23C122.429 13.4274 162.317 7.08812 193 13.5139C207.281 16.5046 221.003 26.4527 235 28.5201C248.257 30.478 263.527 26 277 26C266.454 19.6808 248.101 20.2855 236 16.8596C217.107 11.5107 198.733 5.4408 179 4.08951C139.403 1.37798 98.0702 12.0931 61 24.7716C55.2138 26.7506 48.4997 26.6707 43 29M134 35L134 36C163.688 36 193.256 39.35 223 38.9961C271.947 38.4139 319.729 35.9338 368 47C363.196 42.3386 355.27 40.4311 349 38.3333C332.185 32.7078 314.779 29 297 29C242.537 29 188.386 35 134 35M125 131L131 82L81 82L65 100L105 100L103 110C91.7674 110 75.4307 112.989 65 108.467C48.805 101.445 53.3328 83.2196 67 76.3781C81.6834 69.0279 104.004 73 120 73L136 53C110.949 53 78.2466 47.4474 55 58.3233C29.225 70.3822 18.2495 108.851 47 124.687C68.7297 136.655 100.997 131 125 131M222 131L239 110L198 110C191.351 110 183.339 111.193 177 108.867C159.193 102.331 164.37 82.4948 179 75.9051C195.107 68.6499 214.267 75.9838 231 72L246 53C220.01 53 185.389 46.9285 162 60.3372C138.291 73.9295 131.394 110.032 158 124.687C176.552 134.905 201.576 131 222 131M255 53C249.096 76.9657 245.509 106.323 245 131L314 131L331 110L272 110L279 53L255 53z"/>
</svg>
