<svg width="135" height="45" viewBox="0 0 135 45" fill="none" xmlns="http://www.w3.org/2000/svg">
<g id="logo" filter="url(#filter0_d_2082_150)">
<path d="M14.6849 8.86649H14.3178C10.1974 7.29569 4.52355 6.06904 0 6.06649C3.84426 10.9882 9.47002 11.0443 15.7863 11.0443C24.0034 11.0443 32.1832 10.7332 40.3836 10.7332V10.422C37.6246 9.74541 34.8118 9.0195 33.0411 6.99983C43.8452 4.02168 58.489 2.04946 69.7534 4.04859C74.9963 4.97903 80.034 8.074 85.1726 8.71719C90.0396 9.32631 95.6455 7.93316 100.592 7.93316C96.7201 5.96719 89.9823 6.15531 85.5397 5.08948C78.6037 3.42538 71.8581 1.53696 64.6137 1.11656C50.0767 0.272975 34.9025 3.60657 21.2931 7.55099C19.1689 8.16668 16.704 8.14182 14.6849 8.86649ZM48.0931 10.7332V11.0443C58.9923 11.0443 69.8474 12.0865 80.7671 11.9764C98.7367 11.7953 116.279 11.0237 134 14.4665C132.236 13.0163 129.327 12.4228 127.025 11.7702C120.851 10.02 114.461 8.86649 107.934 8.86649C87.9396 8.86649 68.0595 10.7332 48.0931 10.7332ZM44.789 40.5998L46.9918 25.3554H28.6356L22.7616 30.9554H37.4466L36.7123 34.0665C32.5886 34.0665 26.591 34.9964 22.7616 33.5896C16.8161 31.4049 18.4783 25.7348 23.4959 23.6063C28.8865 21.3196 37.0809 22.5554 42.9534 22.5554L48.8274 16.3332C39.6306 16.3332 27.6248 14.6057 19.0904 17.9893C9.62781 21.741 5.59845 33.709 16.1534 38.6358C24.1309 42.3592 35.977 40.5998 44.789 40.5998ZM80.4 40.5998L86.6411 34.0665H71.589C69.148 34.0665 66.2066 34.4376 63.8795 33.714C57.3421 31.6806 59.2427 25.5093 64.6137 23.4592C70.527 21.202 77.561 23.4837 83.7041 22.2443L89.211 16.3332C79.6694 16.3332 66.9592 14.4442 58.3726 18.6158C49.6685 22.8446 47.1364 34.0764 56.9041 38.6358C63.715 41.8147 72.9019 40.5998 80.4 40.5998ZM92.5151 16.3332C90.3476 23.7892 89.0307 32.9225 88.8438 40.5998H114.175L120.416 34.0665H98.7562L101.326 16.3332H92.5151Z" fill="#FEFFFE"/>
</g>
<defs>
<filter id="filter0_d_2082_150" x="-1" y="0.984858" width="136" height="43.0303" filterUnits="userSpaceOnUse" color-interpolation-filters="sRGB">
<feFlood flood-opacity="0" result="BackgroundImageFix"/>
<feColorMatrix in="SourceAlpha" type="matrix" values="0 0 0 0 0 0 0 0 0 0 0 0 0 0 0 0 0 0 127 0" result="hardAlpha"/>
<feOffset dy="2"/>
<feGaussianBlur stdDeviation="0.5"/>
<feComposite in2="hardAlpha" operator="out"/>
<feColorMatrix type="matrix" values="0 0 0 0 0 0 0 0 0 0 0 0 0 0 0 0 0 0 0.5 0"/>
<feBlend mode="normal" in2="BackgroundImageFix" result="effect1_dropShadow_2082_150"/>
<feBlend mode="normal" in="SourceGraphic" in2="effect1_dropShadow_2082_150" result="shape"/>
</filter>
</defs>
</svg>
